<mxfile host="Electron" agent="Mozilla/5.0 (Macintosh; Intel Mac OS X 10_15_7) AppleWebKit/537.36 (KHTML, like Gecko) draw.io/26.2.15 Chrome/134.0.6998.205 Electron/35.2.1 Safari/537.36" version="26.2.15">
  <diagram name="Seite-1" id="uqpldnm_wUOl9eoGRhwR">
    <mxGraphModel dx="1426" dy="859" grid="1" gridSize="10" guides="1" tooltips="1" connect="1" arrows="1" fold="1" page="1" pageScale="1" pageWidth="1169" pageHeight="1654" math="0" shadow="0">
      <root>
        <mxCell id="0" />
        <mxCell id="1" parent="0" />
        <mxCell id="oT_Oh2bxXWg6ljQe1ebA-62" style="edgeStyle=orthogonalEdgeStyle;rounded=0;orthogonalLoop=1;jettySize=auto;html=1;entryX=0;entryY=0.5;entryDx=0;entryDy=0;strokeWidth=0;endArrow=none;startFill=0;" parent="1" source="oT_Oh2bxXWg6ljQe1ebA-1" target="oT_Oh2bxXWg6ljQe1ebA-61" edge="1">
          <mxGeometry relative="1" as="geometry" />
        </mxCell>
        <mxCell id="oT_Oh2bxXWg6ljQe1ebA-63" style="edgeStyle=orthogonalEdgeStyle;rounded=0;orthogonalLoop=1;jettySize=auto;html=1;entryX=0;entryY=1;entryDx=0;entryDy=0;endArrow=none;startFill=0;" parent="1" source="oT_Oh2bxXWg6ljQe1ebA-1" target="oT_Oh2bxXWg6ljQe1ebA-61" edge="1">
          <mxGeometry relative="1" as="geometry">
            <Array as="points">
              <mxPoint x="440" y="270" />
              <mxPoint x="440" y="203" />
            </Array>
          </mxGeometry>
        </mxCell>
        <mxCell id="oT_Oh2bxXWg6ljQe1ebA-1" value="Rezept" style="rounded=0;whiteSpace=wrap;html=1;" parent="1" vertex="1">
          <mxGeometry x="320" y="240" width="110" height="60" as="geometry" />
        </mxCell>
        <mxCell id="oT_Oh2bxXWg6ljQe1ebA-50" style="edgeStyle=orthogonalEdgeStyle;rounded=0;orthogonalLoop=1;jettySize=auto;html=1;exitX=0.5;exitY=1;exitDx=0;exitDy=0;entryX=0.5;entryY=0;entryDx=0;entryDy=0;endArrow=none;startFill=0;" parent="1" source="oT_Oh2bxXWg6ljQe1ebA-2" target="oT_Oh2bxXWg6ljQe1ebA-48" edge="1">
          <mxGeometry relative="1" as="geometry" />
        </mxCell>
        <mxCell id="oT_Oh2bxXWg6ljQe1ebA-79" value="0..*" style="edgeLabel;html=1;align=center;verticalAlign=middle;resizable=0;points=[];" parent="oT_Oh2bxXWg6ljQe1ebA-50" vertex="1" connectable="0">
          <mxGeometry x="-0.871" y="1" relative="1" as="geometry">
            <mxPoint as="offset" />
          </mxGeometry>
        </mxCell>
        <mxCell id="oT_Oh2bxXWg6ljQe1ebA-2" value="Zutat" style="whiteSpace=wrap;html=1;" parent="1" vertex="1">
          <mxGeometry x="880" y="230" width="120" height="60" as="geometry" />
        </mxCell>
        <mxCell id="oT_Oh2bxXWg6ljQe1ebA-3" value="Kategorie" style="whiteSpace=wrap;html=1;" parent="1" vertex="1">
          <mxGeometry x="451.5" y="430" width="120" height="60" as="geometry" />
        </mxCell>
        <mxCell id="oT_Oh2bxXWg6ljQe1ebA-4" value="User" style="whiteSpace=wrap;html=1;" parent="1" vertex="1">
          <mxGeometry x="210" y="650" width="120" height="60" as="geometry" />
        </mxCell>
        <mxCell id="oT_Oh2bxXWg6ljQe1ebA-5" value="Einkaufszettel" style="whiteSpace=wrap;html=1;" parent="1" vertex="1">
          <mxGeometry x="100" y="365" width="120" height="60" as="geometry" />
        </mxCell>
        <mxCell id="oT_Oh2bxXWg6ljQe1ebA-6" value="Beschreibung" style="ellipse;whiteSpace=wrap;html=1;" parent="1" vertex="1">
          <mxGeometry x="140" y="170" width="90" height="50" as="geometry" />
        </mxCell>
        <mxCell id="oT_Oh2bxXWg6ljQe1ebA-7" value="BildURL" style="ellipse;whiteSpace=wrap;html=1;" parent="1" vertex="1">
          <mxGeometry x="220" y="100" width="90" height="50" as="geometry" />
        </mxCell>
        <mxCell id="oT_Oh2bxXWg6ljQe1ebA-9" value="Titel" style="ellipse;whiteSpace=wrap;html=1;" parent="1" vertex="1">
          <mxGeometry x="350" y="110" width="90" height="50" as="geometry" />
        </mxCell>
        <mxCell id="oT_Oh2bxXWg6ljQe1ebA-10" value="" style="endArrow=none;html=1;rounded=0;" parent="1" source="oT_Oh2bxXWg6ljQe1ebA-1" target="oT_Oh2bxXWg6ljQe1ebA-6" edge="1">
          <mxGeometry width="50" height="50" relative="1" as="geometry">
            <mxPoint x="390" y="490" as="sourcePoint" />
            <mxPoint x="440" y="440" as="targetPoint" />
          </mxGeometry>
        </mxCell>
        <mxCell id="oT_Oh2bxXWg6ljQe1ebA-11" value="" style="endArrow=none;html=1;rounded=0;exitX=0.25;exitY=0;exitDx=0;exitDy=0;" parent="1" source="oT_Oh2bxXWg6ljQe1ebA-1" target="oT_Oh2bxXWg6ljQe1ebA-7" edge="1">
          <mxGeometry width="50" height="50" relative="1" as="geometry">
            <mxPoint x="330" y="257" as="sourcePoint" />
            <mxPoint x="232" y="219" as="targetPoint" />
            <Array as="points">
              <mxPoint x="310" y="190" />
            </Array>
          </mxGeometry>
        </mxCell>
        <mxCell id="oT_Oh2bxXWg6ljQe1ebA-12" value="" style="endArrow=none;html=1;rounded=0;" parent="1" source="oT_Oh2bxXWg6ljQe1ebA-1" target="oT_Oh2bxXWg6ljQe1ebA-9" edge="1">
          <mxGeometry width="50" height="50" relative="1" as="geometry">
            <mxPoint x="340" y="267" as="sourcePoint" />
            <mxPoint x="242" y="229" as="targetPoint" />
          </mxGeometry>
        </mxCell>
        <mxCell id="oT_Oh2bxXWg6ljQe1ebA-14" value="Rolle" style="whiteSpace=wrap;html=1;" parent="1" vertex="1">
          <mxGeometry x="680" y="660" width="120" height="60" as="geometry" />
        </mxCell>
        <mxCell id="oT_Oh2bxXWg6ljQe1ebA-15" value="Name" style="ellipse;whiteSpace=wrap;html=1;" parent="1" vertex="1">
          <mxGeometry x="790" y="60" width="90" height="50" as="geometry" />
        </mxCell>
        <mxCell id="oT_Oh2bxXWg6ljQe1ebA-16" value="kcal/100g" style="ellipse;whiteSpace=wrap;html=1;" parent="1" vertex="1">
          <mxGeometry x="910" y="90" width="90" height="50" as="geometry" />
        </mxCell>
        <mxCell id="oT_Oh2bxXWg6ljQe1ebA-17" value="" style="endArrow=none;html=1;rounded=0;exitX=0.25;exitY=0;exitDx=0;exitDy=0;" parent="1" source="oT_Oh2bxXWg6ljQe1ebA-2" target="oT_Oh2bxXWg6ljQe1ebA-15" edge="1">
          <mxGeometry width="50" height="50" relative="1" as="geometry">
            <mxPoint x="570" y="210" as="sourcePoint" />
            <mxPoint x="620" y="160" as="targetPoint" />
          </mxGeometry>
        </mxCell>
        <mxCell id="oT_Oh2bxXWg6ljQe1ebA-18" value="" style="endArrow=none;html=1;rounded=0;exitX=0.75;exitY=0;exitDx=0;exitDy=0;" parent="1" source="oT_Oh2bxXWg6ljQe1ebA-2" target="oT_Oh2bxXWg6ljQe1ebA-16" edge="1">
          <mxGeometry width="50" height="50" relative="1" as="geometry">
            <mxPoint x="680" y="220" as="sourcePoint" />
            <mxPoint x="710" y="180" as="targetPoint" />
          </mxGeometry>
        </mxCell>
        <mxCell id="oT_Oh2bxXWg6ljQe1ebA-51" value="" style="edgeStyle=orthogonalEdgeStyle;rounded=0;orthogonalLoop=1;jettySize=auto;html=1;endArrow=none;startFill=0;" parent="1" source="oT_Oh2bxXWg6ljQe1ebA-19" target="oT_Oh2bxXWg6ljQe1ebA-48" edge="1">
          <mxGeometry relative="1" as="geometry" />
        </mxCell>
        <mxCell id="oT_Oh2bxXWg6ljQe1ebA-78" value="1" style="edgeLabel;html=1;align=center;verticalAlign=middle;resizable=0;points=[];" parent="oT_Oh2bxXWg6ljQe1ebA-51" vertex="1" connectable="0">
          <mxGeometry x="-0.827" y="-1" relative="1" as="geometry">
            <mxPoint as="offset" />
          </mxGeometry>
        </mxCell>
        <mxCell id="oT_Oh2bxXWg6ljQe1ebA-19" value="Einheit" style="whiteSpace=wrap;html=1;" parent="1" vertex="1">
          <mxGeometry x="950" y="440" width="120" height="60" as="geometry" />
        </mxCell>
        <mxCell id="oT_Oh2bxXWg6ljQe1ebA-21" value="Name" style="ellipse;whiteSpace=wrap;html=1;" parent="1" vertex="1">
          <mxGeometry x="800" y="445" width="90" height="50" as="geometry" />
        </mxCell>
        <mxCell id="oT_Oh2bxXWg6ljQe1ebA-24" value="" style="endArrow=none;html=1;rounded=0;" parent="1" source="oT_Oh2bxXWg6ljQe1ebA-21" target="oT_Oh2bxXWg6ljQe1ebA-19" edge="1">
          <mxGeometry width="50" height="50" relative="1" as="geometry">
            <mxPoint x="390" y="490" as="sourcePoint" />
            <mxPoint x="440" y="440" as="targetPoint" />
          </mxGeometry>
        </mxCell>
        <mxCell id="oT_Oh2bxXWg6ljQe1ebA-26" value="Name" style="ellipse;whiteSpace=wrap;html=1;" parent="1" vertex="1">
          <mxGeometry x="466.5" y="535" width="90" height="50" as="geometry" />
        </mxCell>
        <mxCell id="oT_Oh2bxXWg6ljQe1ebA-27" value="" style="endArrow=none;html=1;rounded=0;" parent="1" source="oT_Oh2bxXWg6ljQe1ebA-26" target="oT_Oh2bxXWg6ljQe1ebA-3" edge="1">
          <mxGeometry width="50" height="50" relative="1" as="geometry">
            <mxPoint x="390" y="490" as="sourcePoint" />
            <mxPoint x="440" y="440" as="targetPoint" />
            <Array as="points" />
          </mxGeometry>
        </mxCell>
        <mxCell id="oT_Oh2bxXWg6ljQe1ebA-28" value="Datum" style="ellipse;whiteSpace=wrap;html=1;" parent="1" vertex="1">
          <mxGeometry y="395" width="90" height="50" as="geometry" />
        </mxCell>
        <mxCell id="oT_Oh2bxXWg6ljQe1ebA-29" value="Name" style="ellipse;whiteSpace=wrap;html=1;" parent="1" vertex="1">
          <mxGeometry x="10" y="500" width="90" height="50" as="geometry" />
        </mxCell>
        <mxCell id="oT_Oh2bxXWg6ljQe1ebA-30" value="" style="endArrow=none;html=1;rounded=0;" parent="1" source="oT_Oh2bxXWg6ljQe1ebA-28" target="oT_Oh2bxXWg6ljQe1ebA-5" edge="1">
          <mxGeometry width="50" height="50" relative="1" as="geometry">
            <mxPoint x="30" y="460" as="sourcePoint" />
            <mxPoint x="80" y="410" as="targetPoint" />
          </mxGeometry>
        </mxCell>
        <mxCell id="oT_Oh2bxXWg6ljQe1ebA-31" value="" style="endArrow=none;html=1;rounded=0;exitX=0.589;exitY=0.08;exitDx=0;exitDy=0;exitPerimeter=0;" parent="1" source="oT_Oh2bxXWg6ljQe1ebA-29" target="oT_Oh2bxXWg6ljQe1ebA-5" edge="1">
          <mxGeometry width="50" height="50" relative="1" as="geometry">
            <mxPoint x="190" y="440" as="sourcePoint" />
            <mxPoint x="240" y="390" as="targetPoint" />
          </mxGeometry>
        </mxCell>
        <mxCell id="oT_Oh2bxXWg6ljQe1ebA-32" value="Name" style="ellipse;whiteSpace=wrap;html=1;" parent="1" vertex="1">
          <mxGeometry x="50" y="750" width="90" height="50" as="geometry" />
        </mxCell>
        <mxCell id="oT_Oh2bxXWg6ljQe1ebA-33" value="Passwort" style="ellipse;whiteSpace=wrap;html=1;" parent="1" vertex="1">
          <mxGeometry x="220" y="840" width="90" height="50" as="geometry" />
        </mxCell>
        <mxCell id="oT_Oh2bxXWg6ljQe1ebA-34" value="Name" style="ellipse;whiteSpace=wrap;html=1;" parent="1" vertex="1">
          <mxGeometry x="730" y="802" width="90" height="50" as="geometry" />
        </mxCell>
        <mxCell id="oT_Oh2bxXWg6ljQe1ebA-35" value="" style="endArrow=none;html=1;rounded=0;" parent="1" source="oT_Oh2bxXWg6ljQe1ebA-14" target="oT_Oh2bxXWg6ljQe1ebA-34" edge="1">
          <mxGeometry width="50" height="50" relative="1" as="geometry">
            <mxPoint x="390" y="490" as="sourcePoint" />
            <mxPoint x="440" y="440" as="targetPoint" />
            <Array as="points" />
          </mxGeometry>
        </mxCell>
        <mxCell id="oT_Oh2bxXWg6ljQe1ebA-36" value="" style="endArrow=none;html=1;rounded=0;" parent="1" source="oT_Oh2bxXWg6ljQe1ebA-4" target="oT_Oh2bxXWg6ljQe1ebA-33" edge="1">
          <mxGeometry width="50" height="50" relative="1" as="geometry">
            <mxPoint x="390" y="490" as="sourcePoint" />
            <mxPoint x="440" y="440" as="targetPoint" />
          </mxGeometry>
        </mxCell>
        <mxCell id="oT_Oh2bxXWg6ljQe1ebA-37" value="" style="endArrow=none;html=1;rounded=0;" parent="1" source="oT_Oh2bxXWg6ljQe1ebA-32" target="oT_Oh2bxXWg6ljQe1ebA-4" edge="1">
          <mxGeometry width="50" height="50" relative="1" as="geometry">
            <mxPoint x="90" y="670" as="sourcePoint" />
            <mxPoint x="120" y="645" as="targetPoint" />
          </mxGeometry>
        </mxCell>
        <mxCell id="oT_Oh2bxXWg6ljQe1ebA-38" value="enthält" style="rhombus;whiteSpace=wrap;html=1;" parent="1" vertex="1">
          <mxGeometry x="190" y="270" width="80" height="80" as="geometry" />
        </mxCell>
        <mxCell id="oT_Oh2bxXWg6ljQe1ebA-39" value="Menge" style="ellipse;whiteSpace=wrap;html=1;" parent="1" vertex="1">
          <mxGeometry x="50" y="250" width="90" height="50" as="geometry" />
        </mxCell>
        <mxCell id="oT_Oh2bxXWg6ljQe1ebA-40" value="" style="endArrow=none;html=1;rounded=0;exitX=1;exitY=0.5;exitDx=0;exitDy=0;" parent="1" source="oT_Oh2bxXWg6ljQe1ebA-5" target="oT_Oh2bxXWg6ljQe1ebA-38" edge="1">
          <mxGeometry width="50" height="50" relative="1" as="geometry">
            <mxPoint x="180" y="390" as="sourcePoint" />
            <mxPoint x="230" y="340" as="targetPoint" />
          </mxGeometry>
        </mxCell>
        <mxCell id="oT_Oh2bxXWg6ljQe1ebA-87" value="0..*" style="edgeLabel;html=1;align=center;verticalAlign=middle;resizable=0;points=[];" parent="oT_Oh2bxXWg6ljQe1ebA-40" vertex="1" connectable="0">
          <mxGeometry x="0.0706" y="-3" relative="1" as="geometry">
            <mxPoint as="offset" />
          </mxGeometry>
        </mxCell>
        <mxCell id="oT_Oh2bxXWg6ljQe1ebA-41" value="" style="endArrow=none;html=1;rounded=0;" parent="1" source="oT_Oh2bxXWg6ljQe1ebA-38" target="oT_Oh2bxXWg6ljQe1ebA-1" edge="1">
          <mxGeometry width="50" height="50" relative="1" as="geometry">
            <mxPoint x="390" y="490" as="sourcePoint" />
            <mxPoint x="440" y="440" as="targetPoint" />
          </mxGeometry>
        </mxCell>
        <mxCell id="oT_Oh2bxXWg6ljQe1ebA-86" value="1..*" style="edgeLabel;html=1;align=center;verticalAlign=middle;resizable=0;points=[];" parent="oT_Oh2bxXWg6ljQe1ebA-41" vertex="1" connectable="0">
          <mxGeometry x="0.5895" y="4" relative="1" as="geometry">
            <mxPoint as="offset" />
          </mxGeometry>
        </mxCell>
        <mxCell id="oT_Oh2bxXWg6ljQe1ebA-42" value="" style="endArrow=none;html=1;rounded=0;" parent="1" source="oT_Oh2bxXWg6ljQe1ebA-38" target="oT_Oh2bxXWg6ljQe1ebA-39" edge="1">
          <mxGeometry width="50" height="50" relative="1" as="geometry">
            <mxPoint x="390" y="490" as="sourcePoint" />
            <mxPoint x="440" y="440" as="targetPoint" />
          </mxGeometry>
        </mxCell>
        <mxCell id="oT_Oh2bxXWg6ljQe1ebA-43" value="hat" style="rhombus;whiteSpace=wrap;html=1;" parent="1" vertex="1">
          <mxGeometry x="700" y="230" width="80" height="80" as="geometry" />
        </mxCell>
        <mxCell id="oT_Oh2bxXWg6ljQe1ebA-44" value="" style="endArrow=none;html=1;rounded=0;entryX=0.063;entryY=0.4;entryDx=0;entryDy=0;entryPerimeter=0;" parent="1" source="oT_Oh2bxXWg6ljQe1ebA-1" target="oT_Oh2bxXWg6ljQe1ebA-43" edge="1">
          <mxGeometry width="50" height="50" relative="1" as="geometry">
            <mxPoint x="390" y="490" as="sourcePoint" />
            <mxPoint x="490" y="260" as="targetPoint" />
          </mxGeometry>
        </mxCell>
        <mxCell id="oT_Oh2bxXWg6ljQe1ebA-77" value="0..*" style="edgeLabel;html=1;align=center;verticalAlign=middle;resizable=0;points=[];" parent="oT_Oh2bxXWg6ljQe1ebA-44" vertex="1" connectable="0">
          <mxGeometry x="-0.8622" y="-2" relative="1" as="geometry">
            <mxPoint as="offset" />
          </mxGeometry>
        </mxCell>
        <mxCell id="oT_Oh2bxXWg6ljQe1ebA-45" value="" style="endArrow=none;html=1;rounded=0;entryX=1;entryY=0.5;entryDx=0;entryDy=0;" parent="1" source="oT_Oh2bxXWg6ljQe1ebA-2" target="oT_Oh2bxXWg6ljQe1ebA-43" edge="1">
          <mxGeometry width="50" height="50" relative="1" as="geometry">
            <mxPoint x="390" y="490" as="sourcePoint" />
            <mxPoint x="440" y="440" as="targetPoint" />
          </mxGeometry>
        </mxCell>
        <mxCell id="oT_Oh2bxXWg6ljQe1ebA-76" value="1..*" style="edgeLabel;html=1;align=center;verticalAlign=middle;resizable=0;points=[];" parent="oT_Oh2bxXWg6ljQe1ebA-45" vertex="1" connectable="0">
          <mxGeometry x="-0.7009" y="-1" relative="1" as="geometry">
            <mxPoint as="offset" />
          </mxGeometry>
        </mxCell>
        <mxCell id="oT_Oh2bxXWg6ljQe1ebA-47" style="edgeStyle=orthogonalEdgeStyle;rounded=0;orthogonalLoop=1;jettySize=auto;html=1;endArrow=none;startFill=0;" parent="1" source="oT_Oh2bxXWg6ljQe1ebA-46" target="oT_Oh2bxXWg6ljQe1ebA-43" edge="1">
          <mxGeometry relative="1" as="geometry" />
        </mxCell>
        <mxCell id="oT_Oh2bxXWg6ljQe1ebA-46" value="Menge" style="ellipse;whiteSpace=wrap;html=1;" parent="1" vertex="1">
          <mxGeometry x="645" y="110" width="90" height="50" as="geometry" />
        </mxCell>
        <mxCell id="oT_Oh2bxXWg6ljQe1ebA-48" value="hat" style="rhombus;whiteSpace=wrap;html=1;" parent="1" vertex="1">
          <mxGeometry x="950" y="330" width="55" height="50" as="geometry" />
        </mxCell>
        <mxCell id="oT_Oh2bxXWg6ljQe1ebA-53" style="edgeStyle=orthogonalEdgeStyle;rounded=0;orthogonalLoop=1;jettySize=auto;html=1;exitX=0.5;exitY=0;exitDx=0;exitDy=0;endArrow=none;startFill=0;" parent="1" source="oT_Oh2bxXWg6ljQe1ebA-52" target="oT_Oh2bxXWg6ljQe1ebA-1" edge="1">
          <mxGeometry relative="1" as="geometry" />
        </mxCell>
        <mxCell id="oT_Oh2bxXWg6ljQe1ebA-83" value="0..*" style="edgeLabel;html=1;align=center;verticalAlign=middle;resizable=0;points=[];" parent="oT_Oh2bxXWg6ljQe1ebA-53" vertex="1" connectable="0">
          <mxGeometry x="0.6" y="2" relative="1" as="geometry">
            <mxPoint x="1" as="offset" />
          </mxGeometry>
        </mxCell>
        <mxCell id="oT_Oh2bxXWg6ljQe1ebA-54" style="edgeStyle=orthogonalEdgeStyle;rounded=0;orthogonalLoop=1;jettySize=auto;html=1;exitX=0.5;exitY=1;exitDx=0;exitDy=0;endArrow=none;startFill=0;" parent="1" source="oT_Oh2bxXWg6ljQe1ebA-52" target="oT_Oh2bxXWg6ljQe1ebA-3" edge="1">
          <mxGeometry relative="1" as="geometry" />
        </mxCell>
        <mxCell id="oT_Oh2bxXWg6ljQe1ebA-82" value="1" style="edgeLabel;html=1;align=center;verticalAlign=middle;resizable=0;points=[];" parent="oT_Oh2bxXWg6ljQe1ebA-54" vertex="1" connectable="0">
          <mxGeometry x="0.8763" y="-1" relative="1" as="geometry">
            <mxPoint as="offset" />
          </mxGeometry>
        </mxCell>
        <mxCell id="oT_Oh2bxXWg6ljQe1ebA-52" value="hat" style="rhombus;whiteSpace=wrap;html=1;" parent="1" vertex="1">
          <mxGeometry x="350" y="320" width="55" height="50" as="geometry" />
        </mxCell>
        <mxCell id="oT_Oh2bxXWg6ljQe1ebA-55" value="Tag" style="whiteSpace=wrap;html=1;" parent="1" vertex="1">
          <mxGeometry x="630" y="350" width="120" height="60" as="geometry" />
        </mxCell>
        <mxCell id="oT_Oh2bxXWg6ljQe1ebA-57" style="edgeStyle=orthogonalEdgeStyle;rounded=0;orthogonalLoop=1;jettySize=auto;html=1;entryX=0.5;entryY=1;entryDx=0;entryDy=0;endArrow=none;startFill=0;" parent="1" source="oT_Oh2bxXWg6ljQe1ebA-56" target="oT_Oh2bxXWg6ljQe1ebA-55" edge="1">
          <mxGeometry relative="1" as="geometry" />
        </mxCell>
        <mxCell id="oT_Oh2bxXWg6ljQe1ebA-56" value="Name" style="ellipse;whiteSpace=wrap;html=1;" parent="1" vertex="1">
          <mxGeometry x="645" y="490" width="90" height="50" as="geometry" />
        </mxCell>
        <mxCell id="oT_Oh2bxXWg6ljQe1ebA-58" value="hat" style="rhombus;whiteSpace=wrap;html=1;" parent="1" vertex="1">
          <mxGeometry x="451.5" y="320" width="52.5" height="45" as="geometry" />
        </mxCell>
        <mxCell id="oT_Oh2bxXWg6ljQe1ebA-59" style="edgeStyle=orthogonalEdgeStyle;rounded=0;orthogonalLoop=1;jettySize=auto;html=1;entryX=0.638;entryY=0.844;entryDx=0;entryDy=0;entryPerimeter=0;endArrow=none;startFill=0;" parent="1" source="oT_Oh2bxXWg6ljQe1ebA-55" target="oT_Oh2bxXWg6ljQe1ebA-58" edge="1">
          <mxGeometry relative="1" as="geometry" />
        </mxCell>
        <mxCell id="oT_Oh2bxXWg6ljQe1ebA-80" value="0..*" style="edgeLabel;html=1;align=center;verticalAlign=middle;resizable=0;points=[];" parent="oT_Oh2bxXWg6ljQe1ebA-59" vertex="1" connectable="0">
          <mxGeometry x="-0.8323" y="-1" relative="1" as="geometry">
            <mxPoint as="offset" />
          </mxGeometry>
        </mxCell>
        <mxCell id="oT_Oh2bxXWg6ljQe1ebA-60" style="edgeStyle=orthogonalEdgeStyle;rounded=0;orthogonalLoop=1;jettySize=auto;html=1;exitX=0.5;exitY=0;exitDx=0;exitDy=0;entryX=0.95;entryY=0.967;entryDx=0;entryDy=0;entryPerimeter=0;endArrow=none;startFill=0;" parent="1" source="oT_Oh2bxXWg6ljQe1ebA-58" target="oT_Oh2bxXWg6ljQe1ebA-1" edge="1">
          <mxGeometry relative="1" as="geometry">
            <Array as="points">
              <mxPoint x="478" y="300" />
              <mxPoint x="425" y="300" />
            </Array>
          </mxGeometry>
        </mxCell>
        <mxCell id="oT_Oh2bxXWg6ljQe1ebA-81" value="0..*" style="edgeLabel;html=1;align=center;verticalAlign=middle;resizable=0;points=[];" parent="oT_Oh2bxXWg6ljQe1ebA-60" vertex="1" connectable="0">
          <mxGeometry x="0.5622" relative="1" as="geometry">
            <mxPoint as="offset" />
          </mxGeometry>
        </mxCell>
        <mxCell id="oT_Oh2bxXWg6ljQe1ebA-61" value="öffentlich?" style="ellipse;whiteSpace=wrap;html=1;" parent="1" vertex="1">
          <mxGeometry x="451.5" y="160" width="90" height="50" as="geometry" />
        </mxCell>
        <mxCell id="oT_Oh2bxXWg6ljQe1ebA-64" value="erstellt von" style="rhombus;whiteSpace=wrap;html=1;" parent="1" vertex="1">
          <mxGeometry x="240" y="410" width="80" height="80" as="geometry" />
        </mxCell>
        <mxCell id="oT_Oh2bxXWg6ljQe1ebA-67" value="" style="endArrow=none;html=1;rounded=0;entryX=0;entryY=1;entryDx=0;entryDy=0;" parent="1" source="oT_Oh2bxXWg6ljQe1ebA-64" target="oT_Oh2bxXWg6ljQe1ebA-1" edge="1">
          <mxGeometry width="50" height="50" relative="1" as="geometry">
            <mxPoint x="470" y="500" as="sourcePoint" />
            <mxPoint x="520" y="450" as="targetPoint" />
          </mxGeometry>
        </mxCell>
        <mxCell id="oT_Oh2bxXWg6ljQe1ebA-85" value="0..*" style="edgeLabel;html=1;align=center;verticalAlign=middle;resizable=0;points=[];" parent="oT_Oh2bxXWg6ljQe1ebA-67" vertex="1" connectable="0">
          <mxGeometry x="0.7982" relative="1" as="geometry">
            <mxPoint as="offset" />
          </mxGeometry>
        </mxCell>
        <mxCell id="oT_Oh2bxXWg6ljQe1ebA-68" style="edgeStyle=orthogonalEdgeStyle;rounded=0;orthogonalLoop=1;jettySize=auto;html=1;entryX=0.6;entryY=0.017;entryDx=0;entryDy=0;entryPerimeter=0;endArrow=none;startFill=0;" parent="1" source="oT_Oh2bxXWg6ljQe1ebA-64" target="oT_Oh2bxXWg6ljQe1ebA-4" edge="1">
          <mxGeometry relative="1" as="geometry" />
        </mxCell>
        <mxCell id="oT_Oh2bxXWg6ljQe1ebA-84" value="1" style="edgeLabel;html=1;align=center;verticalAlign=middle;resizable=0;points=[];" parent="oT_Oh2bxXWg6ljQe1ebA-68" vertex="1" connectable="0">
          <mxGeometry x="0.8771" relative="1" as="geometry">
            <mxPoint as="offset" />
          </mxGeometry>
        </mxCell>
        <mxCell id="oT_Oh2bxXWg6ljQe1ebA-71" style="edgeStyle=orthogonalEdgeStyle;rounded=0;orthogonalLoop=1;jettySize=auto;html=1;endArrow=none;startFill=0;" parent="1" source="oT_Oh2bxXWg6ljQe1ebA-69" target="oT_Oh2bxXWg6ljQe1ebA-5" edge="1">
          <mxGeometry relative="1" as="geometry" />
        </mxCell>
        <mxCell id="oT_Oh2bxXWg6ljQe1ebA-88" value="0.1" style="edgeLabel;html=1;align=center;verticalAlign=middle;resizable=0;points=[];" parent="oT_Oh2bxXWg6ljQe1ebA-71" vertex="1" connectable="0">
          <mxGeometry x="0.9259" y="-1" relative="1" as="geometry">
            <mxPoint as="offset" />
          </mxGeometry>
        </mxCell>
        <mxCell id="oT_Oh2bxXWg6ljQe1ebA-69" value="erstellt" style="rhombus;whiteSpace=wrap;html=1;" parent="1" vertex="1">
          <mxGeometry x="100" y="540" width="80" height="80" as="geometry" />
        </mxCell>
        <mxCell id="oT_Oh2bxXWg6ljQe1ebA-74" style="edgeStyle=orthogonalEdgeStyle;rounded=0;orthogonalLoop=1;jettySize=auto;html=1;endArrow=none;startFill=0;" parent="1" source="oT_Oh2bxXWg6ljQe1ebA-72" target="oT_Oh2bxXWg6ljQe1ebA-14" edge="1">
          <mxGeometry relative="1" as="geometry" />
        </mxCell>
        <mxCell id="oT_Oh2bxXWg6ljQe1ebA-90" value="1" style="edgeLabel;html=1;align=center;verticalAlign=middle;resizable=0;points=[];" parent="oT_Oh2bxXWg6ljQe1ebA-74" vertex="1" connectable="0">
          <mxGeometry x="0.8444" y="1" relative="1" as="geometry">
            <mxPoint as="offset" />
          </mxGeometry>
        </mxCell>
        <mxCell id="oT_Oh2bxXWg6ljQe1ebA-72" value="hat" style="rhombus;whiteSpace=wrap;html=1;" parent="1" vertex="1">
          <mxGeometry x="440" y="670" width="80" height="80" as="geometry" />
        </mxCell>
        <mxCell id="oT_Oh2bxXWg6ljQe1ebA-73" style="edgeStyle=orthogonalEdgeStyle;rounded=0;orthogonalLoop=1;jettySize=auto;html=1;entryX=0.125;entryY=0.425;entryDx=0;entryDy=0;entryPerimeter=0;endArrow=none;startFill=0;" parent="1" source="oT_Oh2bxXWg6ljQe1ebA-4" target="oT_Oh2bxXWg6ljQe1ebA-72" edge="1">
          <mxGeometry relative="1" as="geometry" />
        </mxCell>
        <mxCell id="oT_Oh2bxXWg6ljQe1ebA-91" value="0..*" style="edgeLabel;html=1;align=center;verticalAlign=middle;resizable=0;points=[];" parent="oT_Oh2bxXWg6ljQe1ebA-73" vertex="1" connectable="0">
          <mxGeometry x="-0.8056" y="1" relative="1" as="geometry">
            <mxPoint as="offset" />
          </mxGeometry>
        </mxCell>
        <mxCell id="oT_Oh2bxXWg6ljQe1ebA-75" value="" style="endArrow=none;html=1;rounded=0;entryX=0.55;entryY=0.925;entryDx=0;entryDy=0;entryPerimeter=0;" parent="1" source="oT_Oh2bxXWg6ljQe1ebA-4" target="oT_Oh2bxXWg6ljQe1ebA-69" edge="1">
          <mxGeometry width="50" height="50" relative="1" as="geometry">
            <mxPoint x="85" y="700" as="sourcePoint" />
            <mxPoint x="135" y="650" as="targetPoint" />
          </mxGeometry>
        </mxCell>
        <mxCell id="oT_Oh2bxXWg6ljQe1ebA-89" value="1" style="edgeLabel;html=1;align=center;verticalAlign=middle;resizable=0;points=[];" parent="oT_Oh2bxXWg6ljQe1ebA-75" vertex="1" connectable="0">
          <mxGeometry x="-0.6017" y="-2" relative="1" as="geometry">
            <mxPoint as="offset" />
          </mxGeometry>
        </mxCell>
        <mxCell id="3ub7KNGLTDsJLZ5vHPc_-1" value="Portionen" style="ellipse;whiteSpace=wrap;html=1;" vertex="1" parent="1">
          <mxGeometry x="451.5" y="50" width="90" height="50" as="geometry" />
        </mxCell>
        <mxCell id="3ub7KNGLTDsJLZ5vHPc_-2" value="" style="endArrow=none;html=1;rounded=0;" edge="1" parent="1" source="oT_Oh2bxXWg6ljQe1ebA-1" target="3ub7KNGLTDsJLZ5vHPc_-1">
          <mxGeometry width="50" height="50" relative="1" as="geometry">
            <mxPoint x="560" y="470" as="sourcePoint" />
            <mxPoint x="610" y="420" as="targetPoint" />
          </mxGeometry>
        </mxCell>
      </root>
    </mxGraphModel>
  </diagram>
</mxfile>
